<mxfile host="65bd71144e">
    <diagram id="38NO30gtIOIMFCJ8-FPS" name="Page-1">
        <mxGraphModel dx="1356" dy="537" grid="1" gridSize="10" guides="1" tooltips="1" connect="1" arrows="1" fold="1" page="0" pageScale="1" pageWidth="3300" pageHeight="4681" math="0" shadow="0">
            <root>
                <mxCell id="0"/>
                <mxCell id="1" parent="0"/>
                <mxCell id="2" value="volo_linea" style="whiteSpace=wrap;html=1;" parent="1" vertex="1">
                    <mxGeometry x="170" y="190" width="120" height="60" as="geometry"/>
                </mxCell>
                <mxCell id="3" value="&lt;div style=&quot;font-size: 12px;&quot;&gt;&lt;span style=&quot;font-size: 12px;&quot;&gt;&lt;span style=&quot;font-size: 12px;&quot;&gt;&lt;font color=&quot;#ffffff&quot;&gt;numero&lt;/font&gt;&lt;/span&gt;&lt;/span&gt;&lt;/div&gt;" style="ellipse;whiteSpace=wrap;html=1;labelPosition=right;verticalLabelPosition=middle;align=left;verticalAlign=middle;labelBackgroundColor=default;fillColor=#000000;spacingLeft=2;fontSize=12;aspect=fixed;snapToPoint=1;fontColor=#222222;allowArrows=1;" parent="1" vertex="1">
                    <mxGeometry x="195" y="150" width="10" height="10" as="geometry"/>
                </mxCell>
                <mxCell id="5" value="" style="endArrow=none;html=1;exitX=0.25;exitY=0;exitDx=0;exitDy=0;entryX=0.5;entryY=1;entryDx=0;entryDy=0;" parent="1" source="2" target="3" edge="1">
                    <mxGeometry width="50" height="50" relative="1" as="geometry">
                        <mxPoint x="310" y="200" as="sourcePoint"/>
                        <mxPoint x="360" y="150" as="targetPoint"/>
                    </mxGeometry>
                </mxCell>
                <mxCell id="7" value="orario" style="whiteSpace=wrap;html=1;fontColor=#FFFFFF;" parent="1" vertex="1">
                    <mxGeometry x="-120" y="190" width="120" height="60" as="geometry"/>
                </mxCell>
                <mxCell id="8" value="&lt;div style=&quot;font-size: 12px;&quot;&gt;&lt;span style=&quot;font-size: 12px;&quot;&gt;&lt;span style=&quot;font-size: 12px;&quot;&gt;&lt;font color=&quot;#ffffff&quot;&gt;partenza&lt;/font&gt;&lt;/span&gt;&lt;/span&gt;&lt;/div&gt;" style="ellipse;whiteSpace=wrap;html=1;labelPosition=right;verticalLabelPosition=middle;align=left;verticalAlign=middle;labelBackgroundColor=default;fillColor=none;spacingLeft=2;fontSize=12;strokeWidth=2;snapToPoint=1;fontColor=#222222;allowArrows=1;" parent="1" vertex="1">
                    <mxGeometry x="-95" y="130" width="10" height="10" as="geometry"/>
                </mxCell>
                <mxCell id="9" value="&lt;div style=&quot;font-size: 12px;&quot;&gt;&lt;span style=&quot;font-size: 12px;&quot;&gt;&lt;span style=&quot;font-size: 12px;&quot;&gt;&lt;font color=&quot;#ffffff&quot;&gt;arrivo&lt;/font&gt;&lt;/span&gt;&lt;/span&gt;&lt;/div&gt;" style="ellipse;whiteSpace=wrap;html=1;labelPosition=right;verticalLabelPosition=middle;align=left;verticalAlign=middle;labelBackgroundColor=default;fillColor=none;spacingLeft=2;fontSize=12;strokeWidth=2;snapToPoint=1;fontColor=#222222;allowArrows=1;" parent="1" vertex="1">
                    <mxGeometry x="-65" y="150" width="10" height="10" as="geometry"/>
                </mxCell>
                <mxCell id="10" value="" style="endArrow=none;html=1;fontColor=#FFFFFF;entryX=0.5;entryY=1;entryDx=0;entryDy=0;exitX=0.25;exitY=0;exitDx=0;exitDy=0;" parent="1" source="7" target="8" edge="1">
                    <mxGeometry width="50" height="50" relative="1" as="geometry">
                        <mxPoint x="-80" y="340" as="sourcePoint"/>
                        <mxPoint x="-30" y="290" as="targetPoint"/>
                    </mxGeometry>
                </mxCell>
                <mxCell id="11" value="" style="endArrow=none;html=1;fontColor=#FFFFFF;entryX=0.5;entryY=1;entryDx=0;entryDy=0;exitX=0.5;exitY=0;exitDx=0;exitDy=0;" parent="1" source="7" target="9" edge="1">
                    <mxGeometry width="50" height="50" relative="1" as="geometry">
                        <mxPoint x="-70" y="330" as="sourcePoint"/>
                        <mxPoint x="-20" y="280" as="targetPoint"/>
                    </mxGeometry>
                </mxCell>
                <mxCell id="12" value="&lt;font color=&quot;#ffffff&quot;&gt;prevede&lt;/font&gt;" style="rhombus;whiteSpace=wrap;html=1;fontSize=12;fontColor=#222222;fillColor=none;snapToPoint=1;" parent="1" vertex="1">
                    <mxGeometry x="40" y="195" width="80" height="50" as="geometry"/>
                </mxCell>
                <mxCell id="14" value="" style="endArrow=none;html=1;fontColor=#FFFFFF;entryX=0;entryY=0.5;entryDx=0;entryDy=0;exitX=1;exitY=0.5;exitDx=0;exitDy=0;" parent="1" source="12" target="2" edge="1">
                    <mxGeometry width="50" height="50" relative="1" as="geometry">
                        <mxPoint y="330" as="sourcePoint"/>
                        <mxPoint x="50" y="280" as="targetPoint"/>
                    </mxGeometry>
                </mxCell>
                <mxCell id="16" value="1:N" style="edgeLabel;html=1;align=center;verticalAlign=middle;resizable=0;points=[];fontColor=#FFFFFF;" parent="14" vertex="1" connectable="0">
                    <mxGeometry x="-0.31" y="-2" relative="1" as="geometry">
                        <mxPoint x="2" y="-2" as="offset"/>
                    </mxGeometry>
                </mxCell>
                <mxCell id="15" value="" style="endArrow=none;html=1;fontColor=#FFFFFF;entryX=0;entryY=0.5;entryDx=0;entryDy=0;exitX=1;exitY=0.5;exitDx=0;exitDy=0;" parent="1" source="7" target="12" edge="1">
                    <mxGeometry width="50" height="50" relative="1" as="geometry">
                        <mxPoint y="320" as="sourcePoint"/>
                        <mxPoint x="50" y="270" as="targetPoint"/>
                    </mxGeometry>
                </mxCell>
                <mxCell id="17" value="1" style="edgeLabel;html=1;align=center;verticalAlign=middle;resizable=0;points=[];fontColor=#FFFFFF;" parent="15" vertex="1" connectable="0">
                    <mxGeometry x="-0.41" y="-1" relative="1" as="geometry">
                        <mxPoint x="1" y="-1" as="offset"/>
                    </mxGeometry>
                </mxCell>
                <mxCell id="18" value="&lt;div style=&quot;font-size: 12px;&quot;&gt;&lt;span style=&quot;font-size: 12px;&quot;&gt;&lt;span style=&quot;font-size: 12px;&quot;&gt;&lt;font color=&quot;#ffffff&quot;&gt;durata&lt;/font&gt;&lt;/span&gt;&lt;/span&gt;&lt;/div&gt;" style="ellipse;whiteSpace=wrap;html=1;labelPosition=right;verticalLabelPosition=middle;align=left;verticalAlign=middle;labelBackgroundColor=default;fillColor=none;spacingLeft=2;fontSize=12;strokeWidth=2;snapToPoint=1;fontColor=#222222;allowArrows=1;" parent="1" vertex="1">
                    <mxGeometry x="-35" y="170" width="10" height="10" as="geometry"/>
                </mxCell>
                <mxCell id="19" value="" style="endArrow=none;html=1;fontColor=#FFFFFF;entryX=0.75;entryY=0;entryDx=0;entryDy=0;exitX=0.5;exitY=1;exitDx=0;exitDy=0;" parent="1" source="18" target="7" edge="1">
                    <mxGeometry width="50" height="50" relative="1" as="geometry">
                        <mxPoint x="-100" y="340" as="sourcePoint"/>
                        <mxPoint x="-50" y="290" as="targetPoint"/>
                    </mxGeometry>
                </mxCell>
                <mxCell id="32" value="elenco_aereoporti" style="shape=table;startSize=30;container=1;collapsible=1;childLayout=tableLayout;fixedRows=1;rowLines=0;fontStyle=1;align=center;resizeLast=1;rounded=0;shadow=0;fontColor=#FFFFFF;" parent="1" vertex="1">
                    <mxGeometry x="480" y="145" width="140" height="150" as="geometry">
                        <mxRectangle x="480" y="145" width="70" height="30" as="alternateBounds"/>
                    </mxGeometry>
                </mxCell>
                <mxCell id="33" value="" style="shape=tableRow;horizontal=0;startSize=0;swimlaneHead=0;swimlaneBody=0;fillColor=none;collapsible=0;dropTarget=0;points=[[0,0.5],[1,0.5]];portConstraint=eastwest;top=0;left=0;right=0;bottom=1;rounded=0;shadow=0;fontColor=#FFFFFF;" parent="32" vertex="1">
                    <mxGeometry y="30" width="140" height="30" as="geometry"/>
                </mxCell>
                <mxCell id="34" value="PK" style="shape=partialRectangle;connectable=0;fillColor=none;top=0;left=0;bottom=0;right=0;fontStyle=1;overflow=hidden;rounded=0;shadow=0;fontColor=#FFFFFF;" parent="33" vertex="1">
                    <mxGeometry width="30" height="30" as="geometry">
                        <mxRectangle width="30" height="30" as="alternateBounds"/>
                    </mxGeometry>
                </mxCell>
                <mxCell id="35" value="codice" style="shape=partialRectangle;connectable=0;fillColor=none;top=0;left=0;bottom=0;right=0;align=left;spacingLeft=6;fontStyle=1;overflow=hidden;rounded=0;shadow=0;fontColor=#FFFFFF;" parent="33" vertex="1">
                    <mxGeometry x="30" width="110" height="30" as="geometry">
                        <mxRectangle width="110" height="30" as="alternateBounds"/>
                    </mxGeometry>
                </mxCell>
                <mxCell id="36" value="" style="shape=tableRow;horizontal=0;startSize=0;swimlaneHead=0;swimlaneBody=0;fillColor=none;collapsible=0;dropTarget=0;points=[[0,0.5],[1,0.5]];portConstraint=eastwest;top=0;left=0;right=0;bottom=0;rounded=0;shadow=0;fontColor=#FFFFFF;" parent="32" vertex="1">
                    <mxGeometry y="60" width="140" height="30" as="geometry"/>
                </mxCell>
                <mxCell id="37" value="" style="shape=partialRectangle;connectable=0;fillColor=none;top=0;left=0;bottom=0;right=0;editable=1;overflow=hidden;rounded=0;shadow=0;fontColor=#FFFFFF;" parent="36" vertex="1">
                    <mxGeometry width="30" height="30" as="geometry">
                        <mxRectangle width="30" height="30" as="alternateBounds"/>
                    </mxGeometry>
                </mxCell>
                <mxCell id="38" value="nome" style="shape=partialRectangle;connectable=0;fillColor=none;top=0;left=0;bottom=0;right=0;align=left;spacingLeft=6;overflow=hidden;rounded=0;shadow=0;fontColor=#FFFFFF;" parent="36" vertex="1">
                    <mxGeometry x="30" width="110" height="30" as="geometry">
                        <mxRectangle width="110" height="30" as="alternateBounds"/>
                    </mxGeometry>
                </mxCell>
                <mxCell id="39" value="" style="shape=tableRow;horizontal=0;startSize=0;swimlaneHead=0;swimlaneBody=0;fillColor=none;collapsible=0;dropTarget=0;points=[[0,0.5],[1,0.5]];portConstraint=eastwest;top=0;left=0;right=0;bottom=0;rounded=0;shadow=0;fontColor=#FFFFFF;" parent="32" vertex="1">
                    <mxGeometry y="90" width="140" height="30" as="geometry"/>
                </mxCell>
                <mxCell id="40" value="" style="shape=partialRectangle;connectable=0;fillColor=none;top=0;left=0;bottom=0;right=0;editable=1;overflow=hidden;rounded=0;shadow=0;fontColor=#FFFFFF;" parent="39" vertex="1">
                    <mxGeometry width="30" height="30" as="geometry">
                        <mxRectangle width="30" height="30" as="alternateBounds"/>
                    </mxGeometry>
                </mxCell>
                <mxCell id="41" value="citta" style="shape=partialRectangle;connectable=0;fillColor=none;top=0;left=0;bottom=0;right=0;align=left;spacingLeft=6;overflow=hidden;rounded=0;shadow=0;fontColor=#FFFFFF;" parent="39" vertex="1">
                    <mxGeometry x="30" width="110" height="30" as="geometry">
                        <mxRectangle width="110" height="30" as="alternateBounds"/>
                    </mxGeometry>
                </mxCell>
                <mxCell id="42" value="" style="shape=tableRow;horizontal=0;startSize=0;swimlaneHead=0;swimlaneBody=0;fillColor=none;collapsible=0;dropTarget=0;points=[[0,0.5],[1,0.5]];portConstraint=eastwest;top=0;left=0;right=0;bottom=0;rounded=0;shadow=0;fontColor=#FFFFFF;" parent="32" vertex="1">
                    <mxGeometry y="120" width="140" height="30" as="geometry"/>
                </mxCell>
                <mxCell id="43" value="" style="shape=partialRectangle;connectable=0;fillColor=none;top=0;left=0;bottom=0;right=0;editable=1;overflow=hidden;rounded=0;shadow=0;fontColor=#FFFFFF;" parent="42" vertex="1">
                    <mxGeometry width="30" height="30" as="geometry">
                        <mxRectangle width="30" height="30" as="alternateBounds"/>
                    </mxGeometry>
                </mxCell>
                <mxCell id="44" value="nazione" style="shape=partialRectangle;connectable=0;fillColor=none;top=0;left=0;bottom=0;right=0;align=left;spacingLeft=6;overflow=hidden;rounded=0;shadow=0;fontColor=#FFFFFF;" parent="42" vertex="1">
                    <mxGeometry x="30" width="110" height="30" as="geometry">
                        <mxRectangle width="110" height="30" as="alternateBounds"/>
                    </mxGeometry>
                </mxCell>
                <mxCell id="46" value="&lt;font color=&quot;#ffffff&quot;&gt;partenza&lt;/font&gt;" style="rhombus;whiteSpace=wrap;html=1;fontSize=12;fontColor=#222222;fillColor=none;snapToPoint=1;rounded=0;shadow=0;" parent="1" vertex="1">
                    <mxGeometry x="360" y="170" width="80" height="40" as="geometry"/>
                </mxCell>
                <mxCell id="47" value="" style="endArrow=none;html=1;fontColor=#FFFFFF;exitX=1;exitY=0.25;exitDx=0;exitDy=0;entryX=0;entryY=0.5;entryDx=0;entryDy=0;" parent="1" source="2" target="46" edge="1">
                    <mxGeometry width="50" height="50" relative="1" as="geometry">
                        <mxPoint x="320" y="280" as="sourcePoint"/>
                        <mxPoint x="370" y="230" as="targetPoint"/>
                        <Array as="points">
                            <mxPoint x="330" y="205"/>
                            <mxPoint x="330" y="190"/>
                        </Array>
                    </mxGeometry>
                </mxCell>
                <mxCell id="55" value="0:N" style="edgeLabel;html=1;align=center;verticalAlign=middle;resizable=0;points=[];fontColor=#FFFFFF;" parent="47" vertex="1" connectable="0">
                    <mxGeometry x="-0.6706" y="-1" relative="1" as="geometry">
                        <mxPoint x="5" y="-1" as="offset"/>
                    </mxGeometry>
                </mxCell>
                <mxCell id="48" value="&lt;font color=&quot;#ffffff&quot;&gt;arrivo&lt;/font&gt;" style="rhombus;whiteSpace=wrap;html=1;fontSize=12;fontColor=#222222;fillColor=none;snapToPoint=1;rounded=0;shadow=0;" parent="1" vertex="1">
                    <mxGeometry x="360" y="230" width="80" height="40" as="geometry"/>
                </mxCell>
                <mxCell id="49" value="" style="endArrow=none;html=1;fontColor=#FFFFFF;entryX=0;entryY=0.5;entryDx=0;entryDy=0;exitX=1;exitY=0.75;exitDx=0;exitDy=0;" parent="1" source="2" target="48" edge="1">
                    <mxGeometry width="50" height="50" relative="1" as="geometry">
                        <mxPoint x="310" y="300" as="sourcePoint"/>
                        <mxPoint x="360" y="250" as="targetPoint"/>
                        <Array as="points">
                            <mxPoint x="330" y="235"/>
                            <mxPoint x="330" y="250"/>
                        </Array>
                    </mxGeometry>
                </mxCell>
                <mxCell id="56" value="0:N" style="edgeLabel;html=1;align=center;verticalAlign=middle;resizable=0;points=[];fontColor=#FFFFFF;" parent="49" vertex="1" connectable="0">
                    <mxGeometry x="-0.6518" y="-1" relative="1" as="geometry">
                        <mxPoint x="5" y="-2" as="offset"/>
                    </mxGeometry>
                </mxCell>
                <mxCell id="50" value="" style="endArrow=none;html=1;fontColor=#FFFFFF;entryX=1;entryY=0.5;entryDx=0;entryDy=0;exitX=0;exitY=0.5;exitDx=0;exitDy=0;" parent="1" source="39" target="48" edge="1">
                    <mxGeometry width="50" height="50" relative="1" as="geometry">
                        <mxPoint x="350" y="350" as="sourcePoint"/>
                        <mxPoint x="400" y="300" as="targetPoint"/>
                    </mxGeometry>
                </mxCell>
                <mxCell id="53" value="1" style="edgeLabel;html=1;align=center;verticalAlign=middle;resizable=0;points=[];fontColor=#FFFFFF;" parent="50" vertex="1" connectable="0">
                    <mxGeometry x="-0.3" y="1" relative="1" as="geometry">
                        <mxPoint y="-1" as="offset"/>
                    </mxGeometry>
                </mxCell>
                <mxCell id="51" value="" style="endArrow=none;html=1;fontColor=#FFFFFF;entryX=1;entryY=0.5;entryDx=0;entryDy=0;exitX=0;exitY=0.5;exitDx=0;exitDy=0;" parent="1" source="33" target="46" edge="1">
                    <mxGeometry width="50" height="50" relative="1" as="geometry">
                        <mxPoint x="310" y="360" as="sourcePoint"/>
                        <mxPoint x="360" y="310" as="targetPoint"/>
                    </mxGeometry>
                </mxCell>
                <mxCell id="54" value="1" style="edgeLabel;html=1;align=center;verticalAlign=middle;resizable=0;points=[];fontColor=#FFFFFF;" parent="51" vertex="1" connectable="0">
                    <mxGeometry x="-0.28" y="1" relative="1" as="geometry">
                        <mxPoint y="-1" as="offset"/>
                    </mxGeometry>
                </mxCell>
                <mxCell id="57" value="viaggi" style="whiteSpace=wrap;html=1;rounded=0;shadow=0;fontColor=#FFFFFF;" parent="1" vertex="1">
                    <mxGeometry x="-10" y="320" width="120" height="60" as="geometry"/>
                </mxCell>
                <mxCell id="60" value="&lt;div style=&quot;font-size: 12px;&quot;&gt;&lt;font color=&quot;#ffffff&quot;&gt;stato&lt;/font&gt;&lt;/div&gt;" style="ellipse;whiteSpace=wrap;html=1;labelPosition=right;verticalLabelPosition=middle;align=left;verticalAlign=middle;labelBackgroundColor=default;fillColor=none;spacingLeft=2;fontSize=12;strokeWidth=2;snapToPoint=1;fontColor=#222222;allowArrows=1;rounded=0;shadow=0;" parent="1" vertex="1">
                    <mxGeometry x="15" y="295" width="10" height="10" as="geometry"/>
                </mxCell>
                <mxCell id="64" value="" style="endArrow=none;html=1;fontColor=#FFFFFF;entryX=0.25;entryY=0;entryDx=0;entryDy=0;exitX=0.5;exitY=1;exitDx=0;exitDy=0;" parent="1" source="60" target="57" edge="1">
                    <mxGeometry width="50" height="50" relative="1" as="geometry">
                        <mxPoint x="20" y="390" as="sourcePoint"/>
                        <mxPoint x="20" y="380" as="targetPoint"/>
                    </mxGeometry>
                </mxCell>
                <mxCell id="67" value="" style="endArrow=none;html=1;fontColor=#FFFFFF;exitX=0.75;exitY=0;exitDx=0;exitDy=0;" parent="1" source="57" target="58" edge="1">
                    <mxGeometry width="50" height="50" relative="1" as="geometry">
                        <mxPoint x="90" y="310" as="sourcePoint"/>
                        <mxPoint x="80.00000000000011" y="380" as="targetPoint"/>
                    </mxGeometry>
                </mxCell>
                <mxCell id="58" value="&lt;div style=&quot;font-size: 12px;&quot;&gt;&lt;font color=&quot;#ffffff&quot;&gt;data&lt;/font&gt;&lt;/div&gt;" style="ellipse;whiteSpace=wrap;html=1;labelPosition=right;verticalLabelPosition=middle;align=left;verticalAlign=middle;labelBackgroundColor=default;fillColor=none;spacingLeft=2;fontSize=12;strokeWidth=2;snapToPoint=1;fontColor=#222222;allowArrows=1;rounded=0;shadow=0;" parent="1" vertex="1">
                    <mxGeometry x="75" y="295" width="10" height="10" as="geometry"/>
                </mxCell>
                <mxCell id="69" value="&lt;font color=&quot;#ffffff&quot;&gt;effettua&lt;/font&gt;" style="rhombus;whiteSpace=wrap;html=1;fontSize=12;fontColor=#222222;fillColor=none;snapToPoint=1;rounded=0;shadow=0;" parent="1" vertex="1">
                    <mxGeometry x="175" y="330" width="50" height="40" as="geometry"/>
                </mxCell>
                <mxCell id="71" value="" style="endArrow=none;html=1;fontColor=#FFFFFF;entryX=0;entryY=0.5;entryDx=0;entryDy=0;exitX=1;exitY=0.5;exitDx=0;exitDy=0;" parent="1" source="57" target="69" edge="1">
                    <mxGeometry width="50" height="50" relative="1" as="geometry">
                        <mxPoint y="490" as="sourcePoint"/>
                        <mxPoint x="50" y="440" as="targetPoint"/>
                    </mxGeometry>
                </mxCell>
                <mxCell id="74" value="0:N" style="edgeLabel;html=1;align=center;verticalAlign=middle;resizable=0;points=[];fontColor=#FFFFFF;" parent="71" vertex="1" connectable="0">
                    <mxGeometry x="-0.4743" relative="1" as="geometry">
                        <mxPoint as="offset"/>
                    </mxGeometry>
                </mxCell>
                <mxCell id="72" value="" style="endArrow=none;html=1;fontColor=#FFFFFF;entryX=0.25;entryY=1;entryDx=0;entryDy=0;exitX=0.5;exitY=0;exitDx=0;exitDy=0;" parent="1" source="69" target="2" edge="1">
                    <mxGeometry width="50" height="50" relative="1" as="geometry">
                        <mxPoint x="60" y="360" as="sourcePoint"/>
                        <mxPoint x="110" y="310" as="targetPoint"/>
                    </mxGeometry>
                </mxCell>
                <mxCell id="73" value="1" style="edgeLabel;html=1;align=center;verticalAlign=middle;resizable=0;points=[];fontColor=#FFFFFF;" parent="72" vertex="1" connectable="0">
                    <mxGeometry x="0.2889" relative="1" as="geometry">
                        <mxPoint x="-1" y="10" as="offset"/>
                    </mxGeometry>
                </mxCell>
                <mxCell id="75" value="velivolo" style="whiteSpace=wrap;html=1;rounded=0;shadow=0;fontColor=#FFFFFF;" parent="1" vertex="1">
                    <mxGeometry x="330" y="320" width="120" height="60" as="geometry"/>
                </mxCell>
                <mxCell id="76" value="&lt;font color=&quot;#ffffff&quot; style=&quot;font-size: 9px;&quot;&gt;appartiene&lt;/font&gt;" style="rhombus;whiteSpace=wrap;html=1;fontSize=9;fontColor=#222222;fillColor=none;snapToPoint=1;rounded=0;shadow=0;" parent="1" vertex="1">
                    <mxGeometry x="235" y="330" width="50" height="40" as="geometry"/>
                </mxCell>
                <mxCell id="77" value="" style="endArrow=none;html=1;fontColor=#FFFFFF;exitX=0.5;exitY=0;exitDx=0;exitDy=0;entryX=0.75;entryY=1;entryDx=0;entryDy=0;" parent="1" source="76" target="2" edge="1">
                    <mxGeometry width="50" height="50" relative="1" as="geometry">
                        <mxPoint x="240" y="340" as="sourcePoint"/>
                        <mxPoint x="290" y="290" as="targetPoint"/>
                    </mxGeometry>
                </mxCell>
                <mxCell id="78" value="1:N" style="edgeLabel;html=1;align=center;verticalAlign=middle;resizable=0;points=[];fontColor=#FFFFFF;" parent="77" vertex="1" connectable="0">
                    <mxGeometry x="0.6756" y="-1" relative="1" as="geometry">
                        <mxPoint x="-2" y="26" as="offset"/>
                    </mxGeometry>
                </mxCell>
                <mxCell id="79" value="" style="endArrow=none;html=1;fontColor=#FFFFFF;entryX=1;entryY=0.5;entryDx=0;entryDy=0;exitX=0;exitY=0.5;exitDx=0;exitDy=0;" parent="1" source="75" target="76" edge="1">
                    <mxGeometry width="50" height="50" relative="1" as="geometry">
                        <mxPoint x="110" y="480" as="sourcePoint"/>
                        <mxPoint x="160" y="430" as="targetPoint"/>
                    </mxGeometry>
                </mxCell>
                <mxCell id="80" value="1" style="edgeLabel;html=1;align=center;verticalAlign=middle;resizable=0;points=[];fontColor=#FFFFFF;" parent="79" vertex="1" connectable="0">
                    <mxGeometry x="-0.3806" y="-1" relative="1" as="geometry">
                        <mxPoint x="-2" as="offset"/>
                    </mxGeometry>
                </mxCell>
                <mxCell id="81" value="&lt;div style=&quot;font-size: 12px;&quot;&gt;&lt;span style=&quot;font-size: 12px;&quot;&gt;&lt;span style=&quot;font-size: 12px;&quot;&gt;&lt;font color=&quot;#ffffff&quot;&gt;matricola&lt;/font&gt;&lt;/span&gt;&lt;/span&gt;&lt;/div&gt;" style="ellipse;whiteSpace=wrap;html=1;labelPosition=right;verticalLabelPosition=middle;align=left;verticalAlign=middle;labelBackgroundColor=default;fillColor=#000000;spacingLeft=2;fontSize=12;aspect=fixed;snapToPoint=1;fontColor=#222222;allowArrows=1;rounded=0;shadow=0;" parent="1" vertex="1">
                    <mxGeometry x="355" y="295" width="10" height="10" as="geometry"/>
                </mxCell>
                <mxCell id="82" value="" style="endArrow=none;html=1;fontColor=#FFFFFF;entryX=0.5;entryY=1;entryDx=0;entryDy=0;exitX=0.25;exitY=0;exitDx=0;exitDy=0;" parent="1" source="75" target="81" edge="1">
                    <mxGeometry width="50" height="50" relative="1" as="geometry">
                        <mxPoint x="280" y="450" as="sourcePoint"/>
                        <mxPoint x="330" y="400" as="targetPoint"/>
                    </mxGeometry>
                </mxCell>
                <mxCell id="83" value="&lt;div style=&quot;font-size: 12px;&quot;&gt;&lt;span style=&quot;color: rgb(255, 255, 255);&quot;&gt;modello&lt;/span&gt;&lt;br&gt;&lt;/div&gt;" style="ellipse;whiteSpace=wrap;html=1;labelPosition=right;verticalLabelPosition=middle;align=left;verticalAlign=middle;labelBackgroundColor=default;fillColor=none;spacingLeft=2;fontSize=12;strokeWidth=2;snapToPoint=1;fontColor=#222222;allowArrows=1;rounded=0;shadow=0;" parent="1" vertex="1">
                    <mxGeometry x="385" y="410" width="10" height="10" as="geometry"/>
                </mxCell>
                <mxCell id="84" value="&lt;div style=&quot;font-size: 12px;&quot;&gt;&lt;span style=&quot;color: rgb(255, 255, 255);&quot;&gt;marca&lt;/span&gt;&lt;br&gt;&lt;/div&gt;" style="ellipse;whiteSpace=wrap;html=1;labelPosition=right;verticalLabelPosition=middle;align=left;verticalAlign=middle;labelBackgroundColor=default;fillColor=none;spacingLeft=2;fontSize=12;strokeWidth=2;snapToPoint=1;fontColor=#222222;allowArrows=1;rounded=0;shadow=0;" parent="1" vertex="1">
                    <mxGeometry x="415" y="390" width="10" height="10" as="geometry"/>
                </mxCell>
                <mxCell id="85" value="&lt;div style=&quot;font-size: 12px;&quot;&gt;&lt;span style=&quot;color: rgb(255, 255, 255);&quot;&gt;anno_aquisto&lt;/span&gt;&lt;br&gt;&lt;/div&gt;" style="ellipse;whiteSpace=wrap;html=1;labelPosition=right;verticalLabelPosition=middle;align=left;verticalAlign=middle;labelBackgroundColor=default;fillColor=none;spacingLeft=2;fontSize=12;strokeWidth=2;snapToPoint=1;fontColor=#222222;allowArrows=1;rounded=0;shadow=0;" parent="1" vertex="1">
                    <mxGeometry x="355" y="430" width="10" height="10" as="geometry"/>
                </mxCell>
                <mxCell id="86" value="" style="endArrow=none;html=1;fontColor=#FFFFFF;entryX=0.75;entryY=1;entryDx=0;entryDy=0;exitX=0.5;exitY=0;exitDx=0;exitDy=0;" parent="1" source="84" target="75" edge="1">
                    <mxGeometry width="50" height="50" relative="1" as="geometry">
                        <mxPoint x="420" y="400" as="sourcePoint"/>
                        <mxPoint x="410" y="390" as="targetPoint"/>
                    </mxGeometry>
                </mxCell>
                <mxCell id="88" value="" style="endArrow=none;html=1;fontColor=#FFFFFF;entryX=0.5;entryY=1;entryDx=0;entryDy=0;exitX=0.5;exitY=0;exitDx=0;exitDy=0;" parent="1" source="83" target="75" edge="1">
                    <mxGeometry width="50" height="50" relative="1" as="geometry">
                        <mxPoint x="330" y="470" as="sourcePoint"/>
                        <mxPoint x="380" y="420" as="targetPoint"/>
                    </mxGeometry>
                </mxCell>
                <mxCell id="89" value="" style="endArrow=none;html=1;fontColor=#FFFFFF;entryX=0.25;entryY=1;entryDx=0;entryDy=0;exitX=0.5;exitY=0;exitDx=0;exitDy=0;" parent="1" source="85" target="75" edge="1">
                    <mxGeometry width="50" height="50" relative="1" as="geometry">
                        <mxPoint x="270" y="460" as="sourcePoint"/>
                        <mxPoint x="320" y="410" as="targetPoint"/>
                    </mxGeometry>
                </mxCell>
                <mxCell id="92" value="&lt;font color=&quot;#ffffff&quot; style=&quot;font-size: 12px;&quot;&gt;appartiene&lt;/font&gt;" style="rhombus;whiteSpace=wrap;html=1;fontSize=12;fontColor=#222222;fillColor=none;snapToPoint=1;rounded=0;shadow=0;" parent="1" vertex="1">
                    <mxGeometry x="10" y="420" width="80" height="40" as="geometry"/>
                </mxCell>
                <mxCell id="93" value="" style="endArrow=none;html=1;fontSize=9;fontColor=#FFFFFF;entryX=0.5;entryY=0;entryDx=0;entryDy=0;exitX=0.5;exitY=1;exitDx=0;exitDy=0;" parent="1" source="57" target="92" edge="1">
                    <mxGeometry width="50" height="50" relative="1" as="geometry">
                        <mxPoint x="-20" y="480" as="sourcePoint"/>
                        <mxPoint x="30" y="430" as="targetPoint"/>
                    </mxGeometry>
                </mxCell>
                <mxCell id="142" value="1:N" style="edgeLabel;html=1;align=center;verticalAlign=middle;resizable=0;points=[];fontSize=12;fontColor=#FFFFFF;" parent="93" vertex="1" connectable="0">
                    <mxGeometry x="-0.3683" y="-1" relative="1" as="geometry">
                        <mxPoint x="1" y="1" as="offset"/>
                    </mxGeometry>
                </mxCell>
                <mxCell id="94" value="" style="endArrow=none;html=1;fontSize=9;fontColor=#FFFFFF;entryX=0.5;entryY=1;entryDx=0;entryDy=0;exitX=0.5;exitY=0;exitDx=0;exitDy=0;" parent="1" source="95" target="92" edge="1">
                    <mxGeometry width="50" height="50" relative="1" as="geometry">
                        <mxPoint x="50" y="480" as="sourcePoint"/>
                        <mxPoint x="-10" y="450" as="targetPoint"/>
                    </mxGeometry>
                </mxCell>
                <mxCell id="141" value="1" style="edgeLabel;html=1;align=center;verticalAlign=middle;resizable=0;points=[];fontSize=12;fontColor=#FFFFFF;" parent="94" vertex="1" connectable="0">
                    <mxGeometry x="-0.4254" y="1" relative="1" as="geometry">
                        <mxPoint y="-4" as="offset"/>
                    </mxGeometry>
                </mxCell>
                <mxCell id="95" value="personale" style="shape=table;startSize=30;container=1;collapsible=1;childLayout=tableLayout;fixedRows=1;rowLines=0;fontStyle=1;align=center;resizeLast=1;rounded=0;shadow=0;fontColor=#FFFFFF;" parent="1" vertex="1">
                    <mxGeometry x="-20" y="500" width="140" height="150" as="geometry">
                        <mxRectangle x="-20" y="500" width="70" height="30" as="alternateBounds"/>
                    </mxGeometry>
                </mxCell>
                <mxCell id="96" value="" style="shape=tableRow;horizontal=0;startSize=0;swimlaneHead=0;swimlaneBody=0;fillColor=none;collapsible=0;dropTarget=0;points=[[0,0.5],[1,0.5]];portConstraint=eastwest;top=0;left=0;right=0;bottom=1;rounded=0;shadow=0;fontColor=#FFFFFF;" parent="95" vertex="1">
                    <mxGeometry y="30" width="140" height="30" as="geometry"/>
                </mxCell>
                <mxCell id="97" value="PK" style="shape=partialRectangle;connectable=0;fillColor=none;top=0;left=0;bottom=0;right=0;fontStyle=1;overflow=hidden;rounded=0;shadow=0;fontColor=#FFFFFF;" parent="96" vertex="1">
                    <mxGeometry width="30" height="30" as="geometry">
                        <mxRectangle width="30" height="30" as="alternateBounds"/>
                    </mxGeometry>
                </mxCell>
                <mxCell id="98" value="matricola" style="shape=partialRectangle;connectable=0;fillColor=none;top=0;left=0;bottom=0;right=0;align=left;spacingLeft=6;fontStyle=1;overflow=hidden;rounded=0;shadow=0;fontColor=#FFFFFF;" parent="96" vertex="1">
                    <mxGeometry x="30" width="110" height="30" as="geometry">
                        <mxRectangle width="110" height="30" as="alternateBounds"/>
                    </mxGeometry>
                </mxCell>
                <mxCell id="99" value="" style="shape=tableRow;horizontal=0;startSize=0;swimlaneHead=0;swimlaneBody=0;fillColor=none;collapsible=0;dropTarget=0;points=[[0,0.5],[1,0.5]];portConstraint=eastwest;top=0;left=0;right=0;bottom=0;rounded=0;shadow=0;fontColor=#FFFFFF;" parent="95" vertex="1">
                    <mxGeometry y="60" width="140" height="30" as="geometry"/>
                </mxCell>
                <mxCell id="100" value="" style="shape=partialRectangle;connectable=0;fillColor=none;top=0;left=0;bottom=0;right=0;editable=1;overflow=hidden;rounded=0;shadow=0;fontColor=#FFFFFF;" parent="99" vertex="1">
                    <mxGeometry width="30" height="30" as="geometry">
                        <mxRectangle width="30" height="30" as="alternateBounds"/>
                    </mxGeometry>
                </mxCell>
                <mxCell id="101" value="nome" style="shape=partialRectangle;connectable=0;fillColor=none;top=0;left=0;bottom=0;right=0;align=left;spacingLeft=6;overflow=hidden;rounded=0;shadow=0;fontColor=#FFFFFF;" parent="99" vertex="1">
                    <mxGeometry x="30" width="110" height="30" as="geometry">
                        <mxRectangle width="110" height="30" as="alternateBounds"/>
                    </mxGeometry>
                </mxCell>
                <mxCell id="102" value="" style="shape=tableRow;horizontal=0;startSize=0;swimlaneHead=0;swimlaneBody=0;fillColor=none;collapsible=0;dropTarget=0;points=[[0,0.5],[1,0.5]];portConstraint=eastwest;top=0;left=0;right=0;bottom=0;rounded=0;shadow=0;fontColor=#FFFFFF;" parent="95" vertex="1">
                    <mxGeometry y="90" width="140" height="30" as="geometry"/>
                </mxCell>
                <mxCell id="103" value="" style="shape=partialRectangle;connectable=0;fillColor=none;top=0;left=0;bottom=0;right=0;editable=1;overflow=hidden;rounded=0;shadow=0;fontColor=#FFFFFF;" parent="102" vertex="1">
                    <mxGeometry width="30" height="30" as="geometry">
                        <mxRectangle width="30" height="30" as="alternateBounds"/>
                    </mxGeometry>
                </mxCell>
                <mxCell id="104" value="cognome" style="shape=partialRectangle;connectable=0;fillColor=none;top=0;left=0;bottom=0;right=0;align=left;spacingLeft=6;overflow=hidden;rounded=0;shadow=0;fontColor=#FFFFFF;" parent="102" vertex="1">
                    <mxGeometry x="30" width="110" height="30" as="geometry">
                        <mxRectangle width="110" height="30" as="alternateBounds"/>
                    </mxGeometry>
                </mxCell>
                <mxCell id="105" value="" style="shape=tableRow;horizontal=0;startSize=0;swimlaneHead=0;swimlaneBody=0;fillColor=none;collapsible=0;dropTarget=0;points=[[0,0.5],[1,0.5]];portConstraint=eastwest;top=0;left=0;right=0;bottom=0;rounded=0;shadow=0;fontColor=#FFFFFF;" parent="95" vertex="1">
                    <mxGeometry y="120" width="140" height="30" as="geometry"/>
                </mxCell>
                <mxCell id="106" value="" style="shape=partialRectangle;connectable=0;fillColor=none;top=0;left=0;bottom=0;right=0;editable=1;overflow=hidden;rounded=0;shadow=0;fontColor=#FFFFFF;" parent="105" vertex="1">
                    <mxGeometry width="30" height="30" as="geometry">
                        <mxRectangle width="30" height="30" as="alternateBounds"/>
                    </mxGeometry>
                </mxCell>
                <mxCell id="107" value="data_nascita" style="shape=partialRectangle;connectable=0;fillColor=none;top=0;left=0;bottom=0;right=0;align=left;spacingLeft=6;overflow=hidden;rounded=0;shadow=0;fontColor=#FFFFFF;" parent="105" vertex="1">
                    <mxGeometry x="30" width="110" height="30" as="geometry">
                        <mxRectangle width="110" height="30" as="alternateBounds"/>
                    </mxGeometry>
                </mxCell>
                <mxCell id="123" value="pilota" style="whiteSpace=wrap;html=1;rounded=0;shadow=0;labelBackgroundColor=none;fontSize=9;fontColor=#FFFFFF;" parent="1" vertex="1">
                    <mxGeometry x="260" y="480" width="80" height="40" as="geometry"/>
                </mxCell>
                <mxCell id="124" value="vicepilota" style="whiteSpace=wrap;html=1;rounded=0;shadow=0;labelBackgroundColor=none;fontSize=9;fontColor=#FFFFFF;" parent="1" vertex="1">
                    <mxGeometry x="260" y="530" width="80" height="40" as="geometry"/>
                </mxCell>
                <mxCell id="125" value="comandante&lt;span style=&quot;color: rgba(0, 0, 0, 0); font-family: monospace; font-size: 0px; text-align: start;&quot;&gt;%3CmxGraphModel%3E%3Croot%3E%3CmxCell%20id%3D%220%22%2F%3E%3CmxCell%20id%3D%221%22%20parent%3D%220%22%2F%3E%3CmxCell%20id%3D%222%22%20value%3D%22pilota%22%20style%3D%22whiteSpace%3Dwrap%3Bhtml%3D1%3Brounded%3D0%3Bshadow%3D0%3BlabelBackgroundColor%3Dnone%3BfontSize%3D9%3BfontColor%3D%23FFFFFF%3B%22%20vertex%3D%221%22%20parent%3D%221%22%3E%3CmxGeometry%20x%3D%22200%22%20y%3D%22480%22%20width%3D%2280%22%20height%3D%2240%22%20as%3D%22geometry%22%2F%3E%3C%2FmxCell%3E%3C%2Froot%3E%3C%2FmxGraphModel%3E&lt;/span&gt;" style="whiteSpace=wrap;html=1;rounded=0;shadow=0;labelBackgroundColor=none;fontSize=9;fontColor=#FFFFFF;" parent="1" vertex="1">
                    <mxGeometry x="260" y="580" width="80" height="40" as="geometry"/>
                </mxCell>
                <mxCell id="126" value="assistenti" style="whiteSpace=wrap;html=1;rounded=0;shadow=0;labelBackgroundColor=none;fontSize=9;fontColor=#FFFFFF;" parent="1" vertex="1">
                    <mxGeometry x="260" y="630" width="80" height="40" as="geometry"/>
                </mxCell>
                <mxCell id="127" value="&lt;font color=&quot;#ffffff&quot;&gt;ruolo&lt;/font&gt;" style="rhombus;whiteSpace=wrap;html=1;fontSize=12;fontColor=#222222;fillColor=none;snapToPoint=1;rounded=0;shadow=0;" parent="1" vertex="1">
                    <mxGeometry x="150" y="550" width="60" height="50" as="geometry"/>
                </mxCell>
                <mxCell id="129" value="" style="endArrow=none;html=1;fontSize=12;fontColor=#FFFFFF;entryX=1;entryY=0.5;entryDx=0;entryDy=0;exitX=0;exitY=0.5;exitDx=0;exitDy=0;" parent="1" source="127" target="99" edge="1">
                    <mxGeometry width="50" height="50" relative="1" as="geometry">
                        <mxPoint x="80" y="720" as="sourcePoint"/>
                        <mxPoint x="130" y="670" as="targetPoint"/>
                    </mxGeometry>
                </mxCell>
                <mxCell id="138" value="1:N" style="edgeLabel;html=1;align=center;verticalAlign=middle;resizable=0;points=[];fontSize=12;fontColor=#FFFFFF;" parent="129" vertex="1" connectable="0">
                    <mxGeometry x="0.3905" y="-1" relative="1" as="geometry">
                        <mxPoint x="4" as="offset"/>
                    </mxGeometry>
                </mxCell>
                <mxCell id="130" value="" style="endArrow=none;html=1;fontSize=12;fontColor=#FFFFFF;entryX=1;entryY=0.5;entryDx=0;entryDy=0;exitX=0;exitY=0.5;exitDx=0;exitDy=0;" parent="1" source="123" target="127" edge="1">
                    <mxGeometry width="50" height="50" relative="1" as="geometry">
                        <mxPoint x="170" y="710" as="sourcePoint"/>
                        <mxPoint x="220" y="575" as="targetPoint"/>
                        <Array as="points">
                            <mxPoint x="230" y="500"/>
                            <mxPoint x="220" y="560"/>
                        </Array>
                    </mxGeometry>
                </mxCell>
                <mxCell id="134" value="1" style="edgeLabel;html=1;align=center;verticalAlign=middle;resizable=0;points=[];fontSize=12;fontColor=#FFFFFF;" parent="130" vertex="1" connectable="0">
                    <mxGeometry x="-0.8161" y="1" relative="1" as="geometry">
                        <mxPoint x="-4" as="offset"/>
                    </mxGeometry>
                </mxCell>
                <mxCell id="131" value="" style="endArrow=none;html=1;fontSize=12;fontColor=#FFFFFF;entryX=0;entryY=0.5;entryDx=0;entryDy=0;exitX=1;exitY=0.5;exitDx=0;exitDy=0;" parent="1" source="127" target="124" edge="1">
                    <mxGeometry width="50" height="50" relative="1" as="geometry">
                        <mxPoint x="220" y="575" as="sourcePoint"/>
                        <mxPoint x="200" y="670" as="targetPoint"/>
                        <Array as="points">
                            <mxPoint x="220" y="570"/>
                            <mxPoint x="230" y="550"/>
                        </Array>
                    </mxGeometry>
                </mxCell>
                <mxCell id="135" value="1" style="edgeLabel;html=1;align=center;verticalAlign=middle;resizable=0;points=[];fontSize=12;fontColor=#FFFFFF;" parent="131" vertex="1" connectable="0">
                    <mxGeometry x="0.6989" y="2" relative="1" as="geometry">
                        <mxPoint x="-5" as="offset"/>
                    </mxGeometry>
                </mxCell>
                <mxCell id="132" value="" style="endArrow=none;html=1;fontSize=12;fontColor=#FFFFFF;entryX=0;entryY=0.5;entryDx=0;entryDy=0;" parent="1" target="125" edge="1">
                    <mxGeometry width="50" height="50" relative="1" as="geometry">
                        <mxPoint x="210" y="575" as="sourcePoint"/>
                        <mxPoint x="260" y="560" as="targetPoint"/>
                        <Array as="points">
                            <mxPoint x="220" y="580"/>
                            <mxPoint x="230" y="600"/>
                        </Array>
                    </mxGeometry>
                </mxCell>
                <mxCell id="136" value="1" style="edgeLabel;html=1;align=center;verticalAlign=middle;resizable=0;points=[];fontSize=12;fontColor=#FFFFFF;" parent="132" vertex="1" connectable="0">
                    <mxGeometry x="0.7189" relative="1" as="geometry">
                        <mxPoint x="-5" as="offset"/>
                    </mxGeometry>
                </mxCell>
                <mxCell id="133" value="" style="endArrow=none;html=1;fontSize=12;fontColor=#FFFFFF;entryX=1;entryY=0.5;entryDx=0;entryDy=0;exitX=0;exitY=0.5;exitDx=0;exitDy=0;" parent="1" source="126" target="127" edge="1">
                    <mxGeometry width="50" height="50" relative="1" as="geometry">
                        <mxPoint x="195" y="630" as="sourcePoint"/>
                        <mxPoint x="220" y="575" as="targetPoint"/>
                        <Array as="points">
                            <mxPoint x="230" y="650"/>
                            <mxPoint x="220" y="590"/>
                        </Array>
                    </mxGeometry>
                </mxCell>
                <mxCell id="137" value="1:N" style="edgeLabel;html=1;align=center;verticalAlign=middle;resizable=0;points=[];fontSize=12;fontColor=#FFFFFF;" parent="133" vertex="1" connectable="0">
                    <mxGeometry x="-0.8269" relative="1" as="geometry">
                        <mxPoint x="-5" as="offset"/>
                    </mxGeometry>
                </mxCell>
                <mxCell id="139" value="&lt;div style=&quot;font-size: 12px;&quot;&gt;&lt;span style=&quot;font-size: 12px;&quot;&gt;&lt;span style=&quot;font-size: 12px;&quot;&gt;&lt;font color=&quot;#ffffff&quot;&gt;grado&lt;/font&gt;&lt;/span&gt;&lt;/span&gt;&lt;/div&gt;" style="ellipse;whiteSpace=wrap;html=1;labelPosition=right;verticalLabelPosition=middle;align=left;verticalAlign=middle;labelBackgroundColor=default;fillColor=none;spacingLeft=2;fontSize=12;strokeWidth=2;snapToPoint=1;fontColor=#222222;allowArrows=1;rounded=0;shadow=0;" parent="1" vertex="1">
                    <mxGeometry x="355" y="495" width="10" height="10" as="geometry"/>
                </mxCell>
                <mxCell id="140" value="" style="endArrow=none;html=1;fontSize=12;fontColor=#FFFFFF;entryX=0;entryY=0.5;entryDx=0;entryDy=0;exitX=1;exitY=0.5;exitDx=0;exitDy=0;" parent="1" source="123" target="139" edge="1">
                    <mxGeometry width="50" height="50" relative="1" as="geometry">
                        <mxPoint x="360" y="590" as="sourcePoint"/>
                        <mxPoint x="410" y="540" as="targetPoint"/>
                    </mxGeometry>
                </mxCell>
                <mxCell id="144" value="&lt;font color=&quot;#000000&quot;&gt;Lo stato può essere :&lt;br&gt;- effettuato&lt;br&gt;- previsto&lt;br&gt;- soppresso&lt;br&gt;&lt;/font&gt;" style="shape=note;size=0;html=1;align=left;fillColor=#fff2cc;strokeColor=#d6b656;flipV=1;flipH=1;whiteSpace=wrap;labelBorderColor=none;verticalAlign=top;fontSize=8;spacing=4;labelPosition=center;verticalLabelPosition=middle;autosize=0;container=0;resizeWidth=0;rounded=0;sketch=0;" vertex="1" parent="1">
                    <mxGeometry x="-160" y="320" width="90" height="60" as="geometry"/>
                </mxCell>
                <mxCell id="145" value="" style="endArrow=none;dashed=1;html=1;rounded=0;fontSize=4;snapToPoint=1;entryX=0;entryY=0.5;entryDx=0;entryDy=0;exitX=0;exitY=1;exitDx=0;exitDy=0;exitPerimeter=0;strokeColor=#858585;fontColor=#000000;" edge="1" parent="1" source="144" target="60">
                    <mxGeometry width="50" height="50" relative="1" as="geometry">
                        <mxPoint x="-150" y="410" as="sourcePoint"/>
                        <mxPoint x="-94.01999999999953" y="533.1800000000001" as="targetPoint"/>
                    </mxGeometry>
                </mxCell>
                <mxCell id="146" value="&lt;font color=&quot;#000000&quot;&gt;Il personale è formato da&lt;br&gt;&lt;/font&gt;" style="shape=note;size=0;html=1;align=left;fillColor=#fff2cc;strokeColor=#d6b656;flipV=1;flipH=1;whiteSpace=wrap;labelBorderColor=none;verticalAlign=top;fontSize=8;spacing=4;labelPosition=center;verticalLabelPosition=middle;autosize=0;container=0;resizeWidth=0;rounded=0;sketch=0;" vertex="1" parent="1">
                    <mxGeometry x="130" y="460" width="100" height="25" as="geometry"/>
                </mxCell>
                <mxCell id="147" value="" style="endArrow=none;dashed=1;html=1;rounded=0;fontSize=4;snapToPoint=1;entryX=0.5;entryY=0;entryDx=0;entryDy=0;exitX=0;exitY=0;exitDx=50;exitDy=0;exitPerimeter=0;strokeColor=#858585;fontColor=#000000;" edge="1" parent="1" source="146" target="127">
                    <mxGeometry width="50" height="50" relative="1" as="geometry">
                        <mxPoint x="175" y="485" as="sourcePoint"/>
                        <mxPoint x="175" y="620.3036318803013" as="targetPoint"/>
                    </mxGeometry>
                </mxCell>
            </root>
        </mxGraphModel>
    </diagram>
</mxfile>